<svg xmlns="http://www.w3.org/2000/svg" width="1600" height="900" viewBox="0 0 1600 900">
<defs>
<linearGradient id="bg" x1="0" y1="0" x2="1" y2="1"><stop offset="0" stop-color="#F8FBFF"/><stop offset="1" stop-color="#E0F2FE"/></linearGradient>
<filter id="shadow" x="-20%" y="-20%" width="140%" height="140%"><feDropShadow dx="0" dy="10" stdDeviation="12" flood-color="#0F172A" flood-opacity="0.16"/></filter>
</defs>
<style>text{font-family:&quot;Noto Sans CJK JP&quot;,&quot;Noto Sans JP&quot;,&quot;Hiragino Sans&quot;,&quot;Yu Gothic&quot;,sans-serif}.small{font-size:28px}.body{font-size:34px}.lead{font-size:42px;font-weight:700}.title{font-size:64px;font-weight:800}.caption{font-size:23px}.mini{font-size:20px}</style>
<rect width="1600" height="900" fill="url(#bg)"/>
<circle cx="1430" cy="110" r="170" fill="#DBEAFE" opacity="0.65"/>
<circle cx="160" cy="790" r="220" fill="#CCFBF1" opacity="0.55"/>
<text x="80" y="88" fill="#12355B" font-size="48" font-weight="800" text-anchor="start" class="">資産分散：たまごを1つのかごに盛らない</text>
<rect x="80" y="115" width="560" height="8" rx="4" fill="#2563EB"/>
<text x="1480" y="72" fill="#64748B" font-size="28" font-weight="700" text-anchor="end" class="">03/10</text>
<text x="100" y="165" fill="#334155" font-size="34" font-weight="700" text-anchor="start" class="">株式だけ、国内だけ、円だけに偏ると、1つの出来事で資産全体が大きく揺れます。</text>
<path d="M130 585 Q215 710 300 585 L275 760 L155 760 Z" fill="#2563EB" opacity="0.90"/>
<ellipse cx="180" cy="535" rx="28" ry="36" fill="#FFF7ED" stroke="#FDBA74" stroke-width="4"/>
<ellipse cx="220" cy="517" rx="28" ry="36" fill="#FFF7ED" stroke="#FDBA74" stroke-width="4"/>
<ellipse cx="260" cy="499" rx="28" ry="36" fill="#FFF7ED" stroke="#FDBA74" stroke-width="4"/>
<text x="215" y="815" fill="#12355B" font-size="30" font-weight="800" text-anchor="middle" class="">国内株式</text>
<path d="M415 585 Q500 710 585 585 L560 760 L440 760 Z" fill="#22C55E" opacity="0.90"/>
<ellipse cx="465" cy="535" rx="28" ry="36" fill="#FFF7ED" stroke="#FDBA74" stroke-width="4"/>
<ellipse cx="505" cy="517" rx="28" ry="36" fill="#FFF7ED" stroke="#FDBA74" stroke-width="4"/>
<ellipse cx="545" cy="499" rx="28" ry="36" fill="#FFF7ED" stroke="#FDBA74" stroke-width="4"/>
<text x="500" y="815" fill="#12355B" font-size="30" font-weight="800" text-anchor="middle" class="">海外株式</text>
<path d="M700 585 Q785 710 870 585 L845 760 L725 760 Z" fill="#F59E0B" opacity="0.90"/>
<ellipse cx="750" cy="535" rx="28" ry="36" fill="#FFF7ED" stroke="#FDBA74" stroke-width="4"/>
<ellipse cx="790" cy="517" rx="28" ry="36" fill="#FFF7ED" stroke="#FDBA74" stroke-width="4"/>
<ellipse cx="830" cy="499" rx="28" ry="36" fill="#FFF7ED" stroke="#FDBA74" stroke-width="4"/>
<text x="785" y="815" fill="#12355B" font-size="30" font-weight="800" text-anchor="middle" class="">債券</text>
<path d="M985 585 Q1070 710 1155 585 L1130 760 L1010 760 Z" fill="#7C3AED" opacity="0.90"/>
<ellipse cx="1035" cy="535" rx="28" ry="36" fill="#FFF7ED" stroke="#FDBA74" stroke-width="4"/>
<ellipse cx="1075" cy="517" rx="28" ry="36" fill="#FFF7ED" stroke="#FDBA74" stroke-width="4"/>
<ellipse cx="1115" cy="499" rx="28" ry="36" fill="#FFF7ED" stroke="#FDBA74" stroke-width="4"/>
<text x="1070" y="815" fill="#12355B" font-size="30" font-weight="800" text-anchor="middle" class="">現金・預金</text>
<path d="M1270 585 Q1355 710 1440 585 L1415 760 L1295 760 Z" fill="#0F766E" opacity="0.90"/>
<ellipse cx="1320" cy="535" rx="28" ry="36" fill="#FFF7ED" stroke="#FDBA74" stroke-width="4"/>
<ellipse cx="1360" cy="517" rx="28" ry="36" fill="#FFF7ED" stroke="#FDBA74" stroke-width="4"/>
<ellipse cx="1400" cy="499" rx="28" ry="36" fill="#FFF7ED" stroke="#FDBA74" stroke-width="4"/>
<text x="1355" y="815" fill="#12355B" font-size="30" font-weight="800" text-anchor="middle" class="">保険</text>
<circle cx="135" cy="280" r="9" fill="#2563EB"/>
<text x="163" y="290" fill="#334155" font-size="32" font-weight="600" text-anchor="start" class="">値動きの違う資産に分けることで、家計全体のブレを抑えやすい</text>
<circle cx="135" cy="341" r="9" fill="#2563EB"/>
<text x="163" y="351" fill="#334155" font-size="32" font-weight="600" text-anchor="start" class="">NISAは成長資産を効率よく持つ器として優秀</text>
<circle cx="135" cy="402" r="9" fill="#2563EB"/>
<text x="163" y="412" fill="#334155" font-size="32" font-weight="600" text-anchor="start" class="">変額保険は保障付きの“別のかご”として役割を分けられる</text>
<text x="80" y="852" fill="#64748B" font-size="22">NISA × 変額保険 併用提案資料｜一般情報・個別商品説明ではありません</text>
</svg>